<?xml version="1.0" encoding="UTF-8"?>
<svg id="Layer_1" data-name="Layer 1" xmlns="http://www.w3.org/2000/svg" viewBox="0 0 2690 592">
  <defs>
    <style>
      .cls-1 {
        stroke-width: 10px;
      }

      .cls-1, .cls-2, .cls-3, .cls-4, .cls-5 {
        fill: none;
        stroke: #000;
        stroke-miterlimit: 10;
      }

      .cls-2 {
        stroke-width: 9.96px;
      }

      .cls-6 {
        fill: #202320;
      }

      .cls-3 {
        stroke-width: 8.96px;
      }

      .cls-4 {
        stroke-width: 25px;
      }

      .cls-7 {
        fill: #3f423f;
      }

      .cls-5 {
        stroke-width: 20px;
      }

      .cls-8 {
        fill: #666;
      }
    </style>
  </defs>
  <path d="m1488.68,538.15l-.03-.11-.03-.11c-1.82-8.11-4.87-25.47-4.88-50.64l-3.11-76.88v-.07s0-.07,0-.07c-.72-31.04-6.18-53.97-16.22-68.15-11.1-13.65-26.39-24.65-46.71-33.63l-15.84-6.99,15.41-7.94c23.24-11.97,41.83-28.53,55.26-49.23,12.61-21.48,19.01-48.61,19.01-80.66s-6.18-58.11-18.36-79.27c-12.2-21.19-30.89-37.62-55.56-48.84l-.05-.02-.05-.02c-26.09-12.29-60.36-18.52-101.85-18.52h-250.66v559h60v-247h181.41c31.62,0,56.01,4.04,72.47,12.02l.08.04.08.04c27.48,14.05,42.69,41.71,45.22,82.22v.05s0,.05,0,.05l4.71,95.43v.06s0,.06,0,.06c.96,27.59,2.96,40.23,3.77,44.39.86,4.41,1.82,8.88,3.02,12.63h76.47c-11.11-6.78-18.85-19.24-23.56-37.85Zm-91.83-281.28l-.06.04-.06.04c-22.26,15.29-52.05,23.04-88.53,23.04h-183.2V67h192.54c27.45,0,48.99,4.21,65.84,12.88,31.89,16,48.06,46.55,48.06,90.81,0,40.82-11.64,69.82-34.59,86.18Z"/>
  <path d="m1999.31,182.26c-9.05-31.38-22.78-59.66-40.8-84.03-20.6-26.99-45.45-47.47-73.88-60.87-28.66-13.51-62.07-20.36-99.3-20.36h-218.33v560h217.55c46.33,0,86.23-10.57,118.58-31.41,32.41-20.88,58.34-52.79,77.06-94.84v-.03s.03-.03.03-.03c22.08-48.62,32.81-101.92,32.81-162.94,0-38.45-4.62-73.94-13.72-105.49Zm-53.18,180.34c-6.13,36.29-17.55,67.33-33.95,92.25-19.09,30.29-44.57,51.37-75.74,62.65l-.06.02-.06.02c-16.34,5.61-38.43,8.45-65.68,8.45h-143.64V67h142.87c63.31,0,110.08,21.14,139.01,62.84,28.82,40.45,42.84,96.41,42.84,171.08,0,20.31-1.88,41.06-5.58,61.69Z"/>
  <rect x="2079" y="17" width="60" height="560"/>
  <path d="m2689.51,381h-58.58c-7.17,35.7-18.72,65.6-34.35,88.96-31.39,46.8-75.44,69.54-134.68,69.54-63.24,0-111.39-22.5-143.11-66.89-39.64-54.46-47.66-89.33-47.66-169.06s17.73-146.94,52.7-188.83l.06-.07.06-.07c36.02-41.33,82.96-62.28,139.51-62.28,47.71,0,84.11,11.14,111.29,34.05l.1.08.09.08c24.51,21.99,41.63,51.06,50.95,86.48h58.28c-2.58-20.03-8.44-39.33-17.45-57.49-10.32-20.78-25.12-40.78-44.01-59.46-18.56-18.36-41.38-32.35-67.81-41.59-26.67-9.32-57.7-14.05-92.22-14.05-40.14,0-76.43,7.27-107.85,21.62-31.39,14.33-58.7,36.07-81.18,64.64l-.04.05-.04.05c-21.09,25.99-37.14,56.3-47.73,90.07-10.63,33.92-16.01,72.21-16.01,113.83,0,54.79,7.16,102.98,21.29,143.23,14.04,39.99,35.4,73.38,63.51,99.24,21.13,19.43,45.09,34.26,71.21,44.06,26.5,9.95,55.93,14.99,87.47,14.99,36.31,0,69.37-6.09,98.24-18.11,28.77-11.97,54.17-30.16,75.5-54.05l.03-.04.03-.04c18.06-19.77,32.54-42.17,43.03-66.58,9.46-22,15.96-46.32,19.38-72.39Z"/>
  <polygon points="74.79 16 0 16 0 577 57 577 57 117.3 57 88.83 71.88 112.9 358.88 577 429 577 429 16 372 16 372 475.7 372 504.57 357.08 480.05 74.79 16"/>
  <g>
    <g id="Layer_2" data-name="Layer 2">
      <path d="m502.22,181.19c10.89-35.92,27.23-67.17,49.01-94.5,21.78-26.55,49.01-47.64,80.91-63.26C664.04,7.81,701.38,0,743.39,0s81.68,7.81,115.14,22.65c32.67,15.62,59.9,36.71,82.46,63.26,21.78,27.33,38.12,58.57,49.79,94.5,10.89,36.71,16.34,74.97,16.34,116.37s-5.45,78.88-16.34,114.02c-11.67,35.92-28.01,67.17-49.79,93.72-21.78,27.33-49.01,48.42-81.68,64.04-32.67,15.62-70.79,23.43-113.58,23.43s-80.91-7.81-113.58-23.43c-32.67-15.62-59.9-36.71-81.68-64.04-21.78-26.55-38.12-57.8-49.01-93.72-10.9-35.15-16.35-73.42-16.35-114.03s5.45-79.66,17.11-115.59h0Zm338.41,344.42c25.67-13.28,47.45-32.02,64.57-54.67,16.34-22.65,28.78-49.21,37.34-79.66,7.78-30.46,11.67-61.7,11.67-94.5,0-39.05-4.67-74.2-14-105.43-10.11-30.46-24.12-57.01-42.01-78.88-17.89-21.86-40.45-38.27-66.13-49.98-25.67-11.72-55.23-17.19-87.13-17.19-35.79,0-66.9,7.03-92.57,21.09-26.45,14.06-48.23,32.8-64.57,55.45-17.11,23.43-29.56,49.98-37.34,80.44-8.56,30.46-12.45,61.7-12.45,94.5s3.89,64.83,12.45,95.28c7.78,30.46,20.23,57.01,37.34,79.66,16.34,22.65,38.12,41.39,64.57,54.67,25.67,13.28,57.57,20.3,94.13,20.3s67.68-7.03,94.13-21.09h0Z"/>
    </g>
    <g id="Layer_1-2" data-name="Layer 1">
      <g>
        <g>
          <path class="cls-7" d="m778,421.49c-10.14,1.3-20.49,1.97-31,1.97s-20.18-.63-30-1.84V14h61v407.49Zm-30.39-387.71c0-.55-.45-1.01-1-1.01s-1,.45-1,1.01.45,1.01,1,1.01,1-.45,1-1.01Zm0,52.44c0-.55-.45-1.01-1-1.01s-1,.45-1,1.01.45,1.01,1,1.01,1-.45,1-1.01Zm0,52.44c0-.55-.45-1.01-1-1.01s-1,.45-1,1.01.45,1.01,1,1.01,1-.45,1-1.01Zm0,171.45c0-.55-.45-1.01-1-1.01s-1,.45-1,1.01.45,1.01,1,1.01,1-.45,1-1.01Zm0,31.26c0-.55-.45-1.01-1-1.01s-1,.45-1,1.01.45,1.01,1,1.01,1-.45,1-1.01Zm0,36.31c0-.55-.45-1.01-1-1.01s-1,.45-1,1.01.45,1.01,1,1.01,1-.45,1-1.01Z"/>
          <path class="cls-7" d="m523.38,166h193.62v31h-205.72l-.35-.12c3.42-10.71,7.37-21.11,11.8-31.18l.66.3Zm145.23,15.03c0-.55-.45-1.01-1-1.01s-1,.45-1,1.01.45,1.01,1,1.01,1-.45,1-1.01Zm-81,0c0-.55-.45-1.01-1-1.01s-1,.45-1,1.01.45,1.01,1,1.01,1-.45,1-1.01Z"/>
          <path class="cls-8" d="m716.5,295h.5v126.58c-115.49-14.32-204.68-110.01-205.09-226.25.04-.15.09-.3.14-.45l.35.12h33.6v1.52c0,54.44,76.26,98.48,170.5,98.48Z"/>
          <path class="cls-8" d="m981.09,196.1c-.3,115.23-89.02,210.19-204.09,224.85v-125.62c93.55-.46,169-44.49,169-98.82v-.5h34.99s.06.06.1.1Z"/>
          <path class="cls-7" d="m971.39,166c4.41,10.01,8.32,20.36,11.72,31h-205.11v-31h193.39,0Zm-63.78,15.03c0-.55-.45-1.01-1-1.01s-1,.45-1,1.01.45,1.01,1,1.01,1-.45,1-1.01Zm-81,0c0-.55-.45-1.01-1-1.01s-1,.45-1,1.01.45,1.01,1,1.01,1-.45,1-1.01Z"/>
          <path class="cls-6" d="m717,195.47v100.53h-.5c-94.59,0-171.14-44.27-171.14-99l171.64-1.53Z"/>
          <path class="cls-8" d="m716.72,12.76l.28,1.96v152.29h-192l-.65-.29c37.04-82.85,108.28-142.31,192.37-153.95Z"/>
          <path class="cls-6" d="m946,196v.5c0,54.34-75.45,98.36-169,98.82v-99.33h169Z"/>
          <path class="cls-8" d="m778.25,12.9c83.77,11.96,154.67,71.41,191.52,154.1h-191.77V14.71l.25-1.82Z"/>
        </g>
        <g>
          <path class="cls-1" d="m511.73,197.67c.13-.39.25-.8.39-1.19.04-.15.09-.3.14-.44,3.39-10.45,7.31-20.6,11.7-30.43,37.04-82.85,108.28-142.31,192.37-153.95,9.93-1.37,20.03-2.08,30.28-2.08s21.01.76,31.25,2.22c83.77,11.96,154.67,71.41,191.52,154.1,4.37,9.77,8.25,19.87,11.62,30.26.04.1.07.21.1.32.12.34.23.7.34,1.04"/>
          <path class="cls-5" d="m546.11,197.67c0,54.08,76.04,97.83,170,97.83"/>
          <polyline class="cls-1" points="778 196 946.11 196 981 196 981.11 196 982 196"/>
          <line class="cls-1" x1="513" y1="196" x2="717" y2="196"/>
          <polyline class="cls-5" points="778 196 778 166.29 778 14 717 14 717 166.29 717 196"/>
          <g>
            <path class="cls-4" d="m512.11,195.65c0,.27,0,.55.01.83.41,115.48,89.34,210.53,204.49,224.76,9.82,1.21,19.84,1.84,30,1.84"/>
            <path class="cls-4" d="m981.5,195v1.16c0,.11,0,.21-.01.32-.41,115.13-88.83,209.97-203.49,224.63-10.14,1.3-20.49,1.97-31,1.97"/>
          </g>
          <path class="cls-5" d="m946.11,196.66c0,54.34-75.23,98.36-168.5,98.82-.5.01-1,.01-1.5.01"/>
          <polyline class="cls-5" points="717 196 717 295.5 717 421.24 717 423"/>
          <polyline class="cls-5" points="778 423 778 421.11 778 295.49 778 196"/>
          <ellipse class="cls-3" cx="746.61" cy="33.79" rx="1" ry="1.01"/>
          <ellipse class="cls-3" cx="746.61" cy="86.23" rx="1" ry="1.01"/>
          <ellipse class="cls-3" cx="746.61" cy="138.67" rx="1" ry="1.01"/>
          <polyline class="cls-2" points="778 167 969.38 167 970 167"/>
          <line class="cls-2" x1="525" y1="167" x2="717" y2="167"/>
          <ellipse class="cls-3" cx="667.61" cy="181.03" rx="1" ry="1.01"/>
          <ellipse class="cls-3" cx="825.61" cy="181.03" rx="1" ry="1.01"/>
          <ellipse class="cls-3" cx="906.61" cy="181.03" rx="1" ry="1.01"/>
          <ellipse class="cls-3" cx="586.61" cy="181.03" rx="1" ry="1.01"/>
          <ellipse class="cls-3" cx="746.61" cy="310.12" rx="1" ry="1.01"/>
          <ellipse class="cls-3" cx="746.61" cy="341.38" rx="1" ry="1.01"/>
          <ellipse class="cls-3" cx="746.61" cy="377.69" rx="1" ry="1.01"/>
        </g>
      </g>
    </g>
  </g>
</svg>