<?xml version="1.0" encoding="UTF-8"?>
<svg id="Layer_1" data-name="Layer 1" xmlns="http://www.w3.org/2000/svg" viewBox="0 0 2800 648">
  <defs>
    <style>
      .cls-1 {
        stroke-width: 6px;
      }

      .cls-1, .cls-2, .cls-3, .cls-4, .cls-5 {
        fill: none;
      }

      .cls-1, .cls-2, .cls-4, .cls-5 {
        stroke: #000;
        stroke-miterlimit: 10;
      }

      .cls-2 {
        stroke-width: 10px;
      }

      .cls-6 {
        fill: #202320;
      }

      .cls-7 {
        fill: #3f423f;
      }

      .cls-4 {
        stroke-width: 40px;
      }

      .cls-8 {
        fill: #666;
      }

      .cls-5 {
        stroke-width: 9px;
      }
    </style>
  </defs>
  <g>
    <ellipse class="cls-4" cx="805.74" cy="326.75" rx="240.26" ry="279.25"/>
    <g>
      <g>
        <path class="cls-8" d="m1030.36,228.42c.09.27.17.53.25.81-.39,112.42-85.61,205-196.04,219.07v-122.54c89.86-.29,162.42-43.27,162.42-96.35v-.98h33.38Z"/>
        <path class="cls-7" d="m1030.36,228.42h-195.79v-29.5h184.52l.04-.02c4.22,9.53,7.97,19.38,11.23,29.52Zm-70.38-14.26c0-.54-.43-.98-.96-.98s-.96.44-.96.98.43.98.96.98.96-.44.96-.98Zm-77.84,0c0-.54-.43-.98-.96-.98s-.96.44-.96.98.43.98.96.98.96-.44.96-.98Z"/>
        <path class="cls-8" d="m1019.13,198.9l-.04.02h-184.52V50.44l.18-1.36c80.57,11.47,148.82,69.28,184.38,149.81Z"/>
        <path class="cls-6" d="m996.99,228.42v.98c0,53.08-72.56,96.06-162.42,96.35v-97.34h162.42Z"/>
        <path class="cls-7" d="m834.57,325.75v122.54c-9.59,1.23-19.37,1.86-29.31,1.86s-19.72-.63-29.31-1.86V50.44h58.62v275.31Zm-28.35-255.15c0-.54-.43-.98-.96-.98s-.96.44-.96.98.43.98.96.98.96-.44.96-.98Zm0,51.13c0-.54-.43-.98-.96-.98s-.96.44-.96.98.43.98.96.98.96-.44.96-.98Zm0,51.13c0-.54-.43-.98-.96-.98s-.96.44-.96.98.43.98.96.98.96-.44.96-.98Zm0,167.16c0-.54-.43-.98-.96-.98s-.96.44-.96.98.43.98.96.98.96-.44.96-.98Zm0,30.48c0-.54-.43-.98-.96-.98s-.96.44-.96.98.43.98.96.98.96-.44.96-.98Zm0,35.4c0-.54-.43-.98-.96-.98s-.96.44-.96.98.43.98.96.98.96-.44.96-.98Zm0,30.48c0-.54-.43-.98-.96-.98s-.96.44-.96.98.43.98.96.98.96-.44.96-.98Z"/>
        <path class="cls-8" d="m775.95,325.76v122.53c-110.43-14.07-195.65-106.65-196.04-219.07.08-.28.16-.54.25-.81h32.42v1.97c0,52.72,73.08,95.38,163.38,95.38Z"/>
        <path class="cls-6" d="m775.95,228.42v97.35c-90.3,0-163.38-42.66-163.38-95.38v-1.97h163.38Z"/>
        <path class="cls-7" d="m775.95,198.92v29.5h-195.79c3.27-10.14,7.02-19.99,11.23-29.52l.04.02h184.52Zm-45.65,15.24c0-.54-.43-.98-.96-.98s-.96.44-.96.98.43.98.96.98.96-.44.96-.98Zm-77.84,0c0-.54-.43-.98-.96-.98s-.96.44-.96.98.43.98.96.98.96-.44.96-.98Z"/>
        <path class="cls-8" d="m775.95,50.44v148.48h-184.52l-.04-.02c35.57-80.52,103.8-138.35,184.37-149.81l.19,1.36Z"/>
      </g>
      <g>
        <path class="cls-2" d="m579.53,230.38c.12-.38.24-.78.37-1.16.08-.28.16-.54.25-.81,3.27-10.14,7.02-19.99,11.23-29.52,35.57-80.52,103.8-138.35,184.37-149.81,9.67-1.38,19.52-2.08,29.5-2.08s19.83.71,29.49,2.08c80.57,11.47,148.82,69.28,184.38,149.81,4.22,9.53,7.97,19.38,11.23,29.52.09.27.17.53.25.81.12.33.22.68.33,1.01"/>
        <path class="cls-1" d="m579.9,228.42c0,.27,0,.54,0,.81.39,112.42,85.61,205,196.04,219.07,9.59,1.23,19.37,1.86,29.31,1.86"/>
        <path class="cls-1" d="m612.57,230.38c0,52.72,73.08,95.38,163.38,95.38"/>
        <polyline class="cls-1" points="834.57 228.42 996.99 228.42 1030.36 228.42 1030.62 228.42"/>
        <polyline class="cls-1" points="579.9 228.42 580.16 228.42 612.57 228.42 775.95 228.42"/>
        <polyline class="cls-1" points="834.57 228.42 834.57 198.92 834.57 50.44 775.95 50.44 775.95 198.92 775.95 228.42"/>
        <path class="cls-1" d="m1030.62,228.42c0,.27,0,.54,0,.81-.39,112.42-85.61,205-196.04,219.07-9.59,1.23-19.37,1.86-29.31,1.86"/>
        <path class="cls-1" d="m996.99,229.4c0,53.08-72.56,96.06-162.42,96.35-.32,0-.64,0-.96,0"/>
        <polyline class="cls-1" points="775.95 228.42 775.95 325.76 775.95 448.29 775.95 449.66"/>
        <polyline class="cls-1" points="834.57 449.66 834.57 448.29 834.57 325.75 834.57 228.42"/>
        <ellipse class="cls-5" cx="805.26" cy="70.6" rx=".96" ry=".98"/>
        <ellipse class="cls-5" cx="805.26" cy="121.73" rx=".96" ry=".98"/>
        <ellipse class="cls-5" cx="805.26" cy="172.86" rx=".96" ry=".98"/>
        <line class="cls-2" x1="834.57" y1="198.92" x2="1019.09" y2="198.92"/>
        <line class="cls-2" x1="591.43" y1="198.92" x2="775.95" y2="198.92"/>
        <ellipse class="cls-5" cx="729.34" cy="214.16" rx=".96" ry=".98"/>
        <ellipse class="cls-5" cx="881.18" cy="214.16" rx=".96" ry=".98"/>
        <ellipse class="cls-5" cx="959.03" cy="214.16" rx=".96" ry=".98"/>
        <ellipse class="cls-5" cx="651.49" cy="214.16" rx=".96" ry=".98"/>
        <ellipse class="cls-5" cx="805.26" cy="340.02" rx=".96" ry=".98"/>
        <ellipse class="cls-5" cx="805.26" cy="436.38" rx=".96" ry=".98"/>
        <ellipse class="cls-5" cx="805.26" cy="370.5" rx=".96" ry=".98"/>
        <ellipse class="cls-5" cx="805.26" cy="405.9" rx=".96" ry=".98"/>
      </g>
    </g>
  </g>
  <path class="cls-3" d="m2022.33,475.78c14.82-21.84,26.52-50.7,32.76-86.58,3.9-21.06,5.46-40.56,5.46-58.5,0-69.42-13.26-123.24-41.34-161.46-27.3-38.22-71.76-57.72-132.6-57.72h-134.94v429.78h135.72c24.96,0,46.8-2.34,63.18-7.8,28.86-10.14,53.04-28.86,71.76-57.72Z"/>
  <path class="cls-3" d="m1484.92,204.34c0-39.78-14.82-67.08-43.68-81.12-15.6-7.8-35.88-11.7-62.4-11.7h-184.86v191.1h175.5c35.1,0,63.18-7.02,84.24-21.06,20.28-14.04,31.2-39.78,31.2-77.22Z"/>
  <path d="m1550.5,568.84l-.03-.11-.03-.11c-1.82-8.12-4.87-25.5-4.89-50.7l-3.11-76.97v-.07s0-.07,0-.07c-.72-31.07-6.18-54.03-16.24-68.24-11.12-13.67-26.42-24.68-46.77-33.67l-15.85-7,15.43-7.95c23.27-11.99,41.88-28.57,55.33-49.28,12.63-21.5,19.03-48.67,19.03-80.75s-6.18-58.17-18.38-79.37c-12.21-21.22-30.93-37.67-55.63-48.89l-.05-.02-.05-.02c-26.12-12.3-60.43-18.54-101.97-18.54h-250.96v559.66h59.66v-247.49h180.38c31.44,0,55.69,4.05,72.06,12.04l.08.04.08.04c27.32,14.07,42.45,41.79,44.97,82.38v.05s0,.05,0,.05l4.68,95.62v.06s0,.06,0,.06c.96,27.64,2.94,40.32,3.75,44.48.86,4.42,1.81,8.89,3.01,12.66h79.1c-11.13-6.79-18.88-19.26-23.59-37.89Zm-92.23-281.37l-.06.04-.06.04c-22.3,15.31-52.13,23.08-88.68,23.08h-183.5V97.28h192.86c27.49,0,49.07,4.22,65.94,12.91,31.94,16.03,48.14,46.63,48.14,90.96,0,40.89-11.66,69.93-34.65,86.33Z"/>
  <path d="m2060.06,212.23c-9.05-31.36-22.77-59.62-40.78-83.98-20.58-26.98-45.43-47.44-73.83-60.83-28.64-13.5-62.03-20.35-99.24-20.35h-218.2v559.66h217.42c46.31,0,86.18-10.56,118.51-31.39,32.39-20.87,58.31-52.76,77.02-94.78v-.03s.03-.03.03-.03c22.06-48.59,32.79-101.86,32.79-162.84,0-38.43-4.61-73.9-13.71-105.43Zm-53.1,180.81c-6.13,36.31-17.56,67.37-33.97,92.3-19.1,30.31-44.6,51.4-75.78,62.68l-.06.02-.06.02c-16.35,5.61-38.45,8.46-65.71,8.46h-143.72V97.28h142.94c63.34,0,110.13,21.15,139.08,62.87,28.84,40.47,42.86,96.46,42.86,171.17,0,20.32-1.88,41.08-5.58,61.72Z"/>
  <rect x="2139.42" y="47.07" width="60.44" height="559.66"/>
  <path d="m2750.2,411.08h-58.51c-7.16,35.65-18.69,65.52-34.31,88.85-31.34,46.74-75.34,69.45-134.51,69.45-63.16,0-111.24-22.48-142.92-66.8-39.59-54.39-47.6-89.21-47.6-168.84s17.71-146.75,52.63-188.58l.06-.07.06-.07c35.97-41.27,82.85-62.2,139.33-62.2,47.64,0,84,11.12,111.15,34l.1.08.09.08c24.48,21.96,41.58,51,50.88,86.36h58.2c-2.58-20-8.42-39.28-17.43-57.41-10.3-20.75-25.09-40.73-43.95-59.38-18.54-18.33-41.32-32.31-67.72-41.53-26.63-9.31-57.62-14.03-92.1-14.03-40.09,0-76.33,7.26-107.71,21.59-31.35,14.31-58.62,36.03-81.07,64.55l-.04.05-.04.05c-21.06,25.96-37.1,56.22-47.66,89.96-10.61,33.87-15.99,72.12-15.99,113.68,0,54.72,7.15,102.85,21.27,143.04,14.02,39.93,35.36,73.28,63.42,99.11,21.1,19.41,45.03,34.21,71.12,44,26.47,9.93,55.86,14.97,87.35,14.97,36.27,0,69.28-6.08,98.11-18.08,28.73-11.96,54.1-30.12,75.4-53.98l.03-.04.03-.04c18.04-19.74,32.5-42.12,42.97-66.49,9.44-21.98,15.94-46.26,19.36-72.29Z"/>
  <polygon points="138.19 46.26 60.94 46.26 60.94 607.43 117.48 607.43 117.48 147.59 117.48 119.11 132.24 143.19 416.93 607.43 489.54 607.43 489.54 46.26 433 46.26 433 506.11 433 534.98 418.2 510.46 138.19 46.26"/>
</svg>