<?xml version="1.0" encoding="UTF-8"?>
<svg id="Layer_1" data-name="Layer 1" xmlns="http://www.w3.org/2000/svg" viewBox="0 0 525 592">
  <defs>
    <style>
      .cls-1 {
        stroke-width: 10px;
      }

      .cls-1, .cls-2, .cls-3, .cls-4, .cls-5 {
        fill: none;
        stroke: #000;
        stroke-miterlimit: 10;
      }

      .cls-2 {
        stroke-width: 9.96px;
      }

      .cls-6 {
        fill: #202320;
      }

      .cls-3 {
        stroke-width: 8.96px;
      }

      .cls-4 {
        stroke-width: 25px;
      }

      .cls-7 {
        fill: #3f423f;
      }

      .cls-5 {
        stroke-width: 20px;
      }

      .cls-8 {
        fill: #666;
      }
    </style>
  </defs>
  <g id="Layer_2" data-name="Layer 2">
    <path d="m17.22,181.19c10.89-35.92,27.23-67.17,49.01-94.5,21.78-26.55,49.01-47.64,80.91-63.26C179.04,7.81,216.38,0,258.39,0s81.68,7.81,115.14,22.65c32.67,15.62,59.9,36.71,82.46,63.26,21.78,27.33,38.12,58.57,49.79,94.5,10.89,36.71,16.34,74.97,16.34,116.37s-5.45,78.88-16.34,114.02c-11.67,35.92-28.01,67.17-49.79,93.72-21.78,27.33-49.01,48.42-81.68,64.04-32.67,15.62-70.79,23.43-113.58,23.43s-80.91-7.81-113.58-23.43c-32.67-15.62-59.9-36.71-81.68-64.04-21.78-26.55-38.12-57.8-49.01-93.72C5.56,375.66.11,337.39.11,296.78s5.45-79.66,17.11-115.59h0Zm338.41,344.42c25.67-13.28,47.45-32.02,64.57-54.67,16.34-22.65,28.78-49.21,37.34-79.66,7.78-30.46,11.67-61.7,11.67-94.5,0-39.05-4.67-74.2-14-105.43-10.11-30.46-24.12-57.01-42.01-78.88-17.89-21.86-40.45-38.27-66.13-49.98-25.67-11.72-55.23-17.19-87.13-17.19-35.79,0-66.9,7.03-92.57,21.09-26.45,14.06-48.23,32.8-64.57,55.45-17.11,23.43-29.56,49.98-37.34,80.44-8.56,30.46-12.45,61.7-12.45,94.5s3.89,64.83,12.45,95.28c7.78,30.46,20.23,57.01,37.34,79.66,16.34,22.65,38.12,41.39,64.57,54.67,25.67,13.28,57.57,20.3,94.13,20.3s67.68-7.03,94.13-21.09h0Z"/>
  </g>
  <g id="Layer_1-2" data-name="Layer 1">
    <g>
      <g>
        <path class="cls-7" d="m293,421.49c-10.14,1.3-20.49,1.97-31,1.97s-20.18-.63-30-1.84V14h61v407.49Zm-30.39-387.71c0-.55-.45-1.01-1-1.01s-1,.45-1,1.01.45,1.01,1,1.01,1-.45,1-1.01Zm0,52.44c0-.55-.45-1.01-1-1.01s-1,.45-1,1.01.45,1.01,1,1.01,1-.45,1-1.01Zm0,52.44c0-.55-.45-1.01-1-1.01s-1,.45-1,1.01.45,1.01,1,1.01,1-.45,1-1.01Zm0,171.45c0-.55-.45-1.01-1-1.01s-1,.45-1,1.01.45,1.01,1,1.01,1-.45,1-1.01Zm0,31.26c0-.55-.45-1.01-1-1.01s-1,.45-1,1.01.45,1.01,1,1.01,1-.45,1-1.01Zm0,36.31c0-.55-.45-1.01-1-1.01s-1,.45-1,1.01.45,1.01,1,1.01,1-.45,1-1.01Z"/>
        <path class="cls-7" d="m38.38,166h193.62v31H26.28l-.35-.12c3.42-10.71,7.37-21.11,11.8-31.18l.66.3Zm145.23,15.03c0-.55-.45-1.01-1-1.01s-1,.45-1,1.01.45,1.01,1,1.01,1-.45,1-1.01Zm-81,0c0-.55-.45-1.01-1-1.01s-1,.45-1,1.01.45,1.01,1,1.01,1-.45,1-1.01Z"/>
        <path class="cls-8" d="m231.5,295h.5v126.58c-115.49-14.32-204.68-110.01-205.09-226.25.04-.15.09-.3.14-.45l.35.12h33.6v1.52c0,54.44,76.26,98.48,170.5,98.48Z"/>
        <path class="cls-8" d="m496.09,196.1c-.3,115.23-89.02,210.19-204.09,224.85v-125.62c93.55-.46,169-44.49,169-98.82v-.5h34.99s.06.06.1.1Z"/>
        <path class="cls-7" d="m486.39,166c4.41,10.01,8.32,20.36,11.72,31h-205.11v-31h193.39,0Zm-63.78,15.03c0-.55-.45-1.01-1-1.01s-1,.45-1,1.01.45,1.01,1,1.01,1-.45,1-1.01Zm-81,0c0-.55-.45-1.01-1-1.01s-1,.45-1,1.01.45,1.01,1,1.01,1-.45,1-1.01Z"/>
        <path class="cls-6" d="m232,195.47v100.53h-.5c-94.59,0-171.14-44.27-171.14-99l171.64-1.53Z"/>
        <path class="cls-8" d="m231.72,12.76l.28,1.96v152.29H40l-.65-.29C76.39,83.86,147.63,24.4,231.72,12.76Z"/>
        <path class="cls-6" d="m461,196v.5c0,54.34-75.45,98.36-169,98.82v-99.33h169Z"/>
        <path class="cls-8" d="m293.25,12.9c83.77,11.96,154.67,71.41,191.52,154.1h-191.77V14.71l.25-1.82Z"/>
      </g>
      <g>
        <path class="cls-1" d="m26.73,197.67c.13-.39.25-.8.39-1.19.04-.15.09-.3.14-.44,3.39-10.45,7.31-20.6,11.7-30.43C76,82.76,147.24,23.3,231.33,11.66c9.93-1.37,20.03-2.08,30.28-2.08s21.01.76,31.25,2.22c83.77,11.96,154.67,71.41,191.52,154.1,4.37,9.77,8.25,19.87,11.62,30.26.04.1.07.21.1.32.12.34.23.7.34,1.04"/>
        <path class="cls-5" d="m61.11,197.67c0,54.08,76.04,97.83,170,97.83"/>
        <polyline class="cls-1" points="293 196 461.11 196 496 196 496.11 196 497 196"/>
        <line class="cls-1" x1="28" y1="196" x2="232" y2="196"/>
        <polyline class="cls-5" points="293 196 293 166.29 293 14 232 14 232 166.29 232 196"/>
        <g>
          <path class="cls-4" d="m27.11,195.65c0,.27,0,.55.01.83.41,115.48,89.34,210.53,204.49,224.76,9.82,1.21,19.84,1.84,30,1.84"/>
          <path class="cls-4" d="m496.5,195v1.16c0,.11,0,.21-.01.32-.41,115.13-88.83,209.97-203.49,224.63-10.14,1.3-20.49,1.97-31,1.97"/>
        </g>
        <path class="cls-5" d="m461.11,196.66c0,54.34-75.23,98.36-168.5,98.82-.5.01-1,.01-1.5.01"/>
        <polyline class="cls-5" points="232 196 232 295.5 232 421.24 232 423"/>
        <polyline class="cls-5" points="293 423 293 421.11 293 295.49 293 196"/>
        <ellipse class="cls-3" cx="261.61" cy="33.79" rx="1" ry="1.01"/>
        <ellipse class="cls-3" cx="261.61" cy="86.23" rx="1" ry="1.01"/>
        <ellipse class="cls-3" cx="261.61" cy="138.67" rx="1" ry="1.01"/>
        <polyline class="cls-2" points="293 167 484.38 167 485 167"/>
        <line class="cls-2" x1="40" y1="167" x2="232" y2="167"/>
        <ellipse class="cls-3" cx="182.61" cy="181.03" rx="1" ry="1.01"/>
        <ellipse class="cls-3" cx="340.61" cy="181.03" rx="1" ry="1.01"/>
        <ellipse class="cls-3" cx="421.61" cy="181.03" rx="1" ry="1.01"/>
        <ellipse class="cls-3" cx="101.61" cy="181.03" rx="1" ry="1.01"/>
        <ellipse class="cls-3" cx="261.61" cy="310.12" rx="1" ry="1.01"/>
        <ellipse class="cls-3" cx="261.61" cy="341.38" rx="1" ry="1.01"/>
        <ellipse class="cls-3" cx="261.61" cy="377.69" rx="1" ry="1.01"/>
      </g>
    </g>
  </g>
</svg>