<?xml version="1.0" encoding="UTF-8"?>
<svg id="Layer_1" data-name="Layer 1" xmlns="http://www.w3.org/2000/svg" viewBox="0 0 522 522">
  <defs>
    <style>
      .cls-1 {
        stroke-width: 9.43px;
      }

      .cls-1, .cls-2, .cls-3 {
        fill: none;
        stroke: #000;
        stroke-miterlimit: 10;
      }

      .cls-4 {
        fill: #202320;
      }

      .cls-2 {
        stroke-width: 8.49px;
      }

      .cls-5 {
        fill: #3f423f;
      }

      .cls-3 {
        stroke-width: 5.66px;
      }

      .cls-6 {
        fill: #666;
      }
    </style>
  </defs>
  <g id="Layer_2" data-name="Layer 2">
    <path d="m17.11,159.77c10.89-31.68,27.23-59.23,49.01-83.32,21.78-23.41,49.01-42.01,80.91-55.78C178.93,6.88,216.27,0,258.28,0s81.68,6.88,115.14,19.97c32.67,13.77,59.9,32.37,82.46,55.78,21.78,24.1,38.12,51.65,49.79,83.32,10.89,32.37,16.34,66.11,16.34,102.61s-5.45,69.55-16.34,100.54c-11.67,31.68-28.01,59.23-49.79,82.64-21.78,24.1-49.01,42.69-81.68,56.47-32.67,13.77-70.79,20.66-113.58,20.66s-80.91-6.88-113.58-20.66c-32.67-13.77-59.9-32.37-81.68-56.47-21.78-23.41-38.12-50.96-49.01-82.64C5.45,331.24,0,297.5,0,261.68s5.45-70.24,17.11-101.92h0Zm338.4,303.69c25.67-11.71,47.45-28.23,64.57-48.21,16.34-19.97,28.78-43.39,37.34-70.24,7.78-26.86,11.67-54.41,11.67-83.32,0-34.43-4.67-65.42-14-92.96-10.11-26.86-24.12-50.27-42.01-69.55-17.89-19.28-40.45-33.75-66.13-44.07-25.67-10.33-55.23-15.15-87.13-15.15-35.79,0-66.9,6.2-92.57,18.59-26.45,12.4-48.23,28.92-64.57,48.89-17.11,20.66-29.56,44.07-37.34,70.93-8.56,26.86-12.45,54.41-12.45,83.32s3.89,57.16,12.45,84.02c7.78,26.86,20.23,50.27,37.34,70.24,16.34,19.97,38.12,36.5,64.57,48.21,25.67,11.71,57.57,17.9,94.13,17.9s67.68-6.2,94.13-18.59h0Z"/>
  </g>
  <g id="Layer_1-2" data-name="Layer 1">
    <g>
      <g>
        <path class="cls-5" d="m292.49,371.31c-10.14,1.15-20.49,1.73-31,1.73s-20.18-.55-30-1.62V12.01h61v359.31Zm-30-341.52c0-.49-.45-.89-1-.89s-1,.4-1,.89.45.89,1,.89,1-.4,1-.89Zm0,46.24c0-.49-.45-.89-1-.89s-1,.4-1,.89.45.89,1,.89,1-.4,1-.89Zm0,46.24c0-.49-.45-.89-1-.89s-1,.4-1,.89.45.89,1,.89,1-.4,1-.89Zm0,151.18c0-.49-.45-.89-1-.89s-1,.4-1,.89.45.89,1,.89,1-.4,1-.89Zm0,27.57c0-.49-.45-.89-1-.89s-1,.4-1,.89.45.89,1,.89,1-.4,1-.89Zm0,32.01c0-.49-.45-.89-1-.89s-1,.4-1,.89.45.89,1,.89,1-.4,1-.89Zm0,27.57c0-.49-.45-.89-1-.89s-1,.4-1,.89.45.89,1,.89,1-.4,1-.89Z"/>
        <path class="cls-5" d="m39.5,146.28h192v26.68H27.5l-.35-.11c3.39-9.21,7.31-18.17,11.7-26.83l.65.26Zm144,13.34c0-.49-.45-.89-1-.89s-1,.4-1,.89.45.89,1,.89,1-.4,1-.89Zm-81,0c0-.49-.45-.89-1-.89s-1,.4-1,.89.45.89,1,.89,1-.4,1-.89Z"/>
        <path class="cls-6" d="m231,260.56h.5v110.87c-115.15-12.55-204.08-96.36-204.49-198.18.04-.13.09-.27.14-.39l.35.11h33.5v1.33c0,47.68,76.04,86.26,170,86.26Z"/>
        <path class="cls-6" d="m495.88,172.96c.04.09.07.19.1.28-.41,101.52-88.83,185.15-203.49,198.07v-110.77c93.27-.41,168.5-39.23,168.5-87.14v-.44h34.89Z"/>
        <path class="cls-5" d="m484.26,146.28c4.37,8.62,8.25,17.52,11.62,26.68h-203.39v-26.68h191.77,0Zm-61.77,13.34c0-.49-.45-.89-1-.89s-1,.4-1,.89.45.89,1,.89,1-.4,1-.89Zm-81,0c0-.49-.45-.89-1-.89s-1,.4-1,.89.45.89,1,.89,1-.4,1-.89Z"/>
        <path class="cls-4" d="m61,172.96h170.5v87.59h-.5c-93.96,0-170-38.58-170-86.26v-1.33Z"/>
        <path class="cls-6" d="m231.22,10.28l.28,1.73v134.28H39.5l-.65-.26C75.89,72.97,147.13,20.54,231.22,10.28Z"/>
        <path class="cls-4" d="m460.99,172.96v.44c0,47.91-75.23,86.73-168.5,87.14v-87.58h168.5Z"/>
        <path class="cls-6" d="m292.74,10.4c83.77,10.55,154.67,62.97,191.52,135.88h-191.77V12.01l.25-1.6Z"/>
      </g>
      <g>
        <path class="cls-3" d="m26.62,174.3c.13-.35.25-.7.39-1.05.04-.13.09-.27.14-.39,3.39-9.21,7.31-18.17,11.7-26.83C75.89,72.97,147.13,20.54,231.22,10.28c9.93-1.21,20.03-1.83,30.28-1.83s21.01.67,31.25,1.96c83.77,10.55,154.67,62.97,191.52,135.88,4.37,8.62,8.25,17.52,11.62,26.68.04.09.07.19.1.28.12.3.23.61.34.92"/>
        <path class="cls-3" d="m27,172.52c0,.24,0,.49.01.73.41,101.82,89.34,185.63,204.49,198.18,9.82,1.07,19.84,1.62,30,1.62"/>
        <path class="cls-3" d="m61,174.3c0,47.68,76.04,86.26,170,86.26"/>
        <polyline class="cls-3" points="292.49 172.96 460.99 172.96 495.88 172.96 495.99 172.96 496.49 172.96"/>
        <polyline class="cls-3" points="27.5 172.96 61 172.96 231.5 172.96"/>
        <polyline class="cls-3" points="292.49 172.96 292.49 146.28 292.49 12.01 231.5 12.01 231.5 146.28 231.5 172.96"/>
        <path class="cls-3" d="m495.99,172.52v.44c0,.1,0,.19-.01.28-.41,101.52-88.83,185.15-203.49,198.07-10.14,1.15-20.49,1.73-31,1.73"/>
        <path class="cls-3" d="m460.99,173.41c0,47.91-75.23,86.73-168.5,87.14-.5,0-1,0-1.5,0"/>
        <polyline class="cls-3" points="231.5 172.96 231.5 260.56 231.5 371.43 231.5 373.05"/>
        <polyline class="cls-3" points="292.49 373.05 292.49 371.31 292.49 260.55 292.49 172.96"/>
        <ellipse class="cls-2" cx="261.49" cy="29.79" rx="1" ry=".89"/>
        <ellipse class="cls-2" cx="261.49" cy="76.03" rx="1" ry=".89"/>
        <ellipse class="cls-2" cx="261.49" cy="122.27" rx="1" ry=".89"/>
        <polyline class="cls-1" points="292.49 146.28 484.26 146.28 484.49 146.28"/>
        <line class="cls-1" x1="39.5" y1="146.28" x2="231.5" y2="146.28"/>
        <ellipse class="cls-2" cx="182.5" cy="159.62" rx="1" ry=".89"/>
        <ellipse class="cls-2" cx="340.49" cy="159.62" rx="1" ry=".89"/>
        <ellipse class="cls-2" cx="421.49" cy="159.62" rx="1" ry=".89"/>
        <ellipse class="cls-2" cx="101.5" cy="159.62" rx="1" ry=".89"/>
        <ellipse class="cls-2" cx="261.49" cy="273.45" rx="1" ry=".89"/>
        <ellipse class="cls-2" cx="261.49" cy="360.6" rx="1" ry=".89"/>
        <ellipse class="cls-2" cx="261.49" cy="301.02" rx="1" ry=".89"/>
        <ellipse class="cls-2" cx="261.49" cy="333.03" rx="1" ry=".89"/>
      </g>
    </g>
  </g>
</svg>