<?xml version="1.0" encoding="UTF-8"?>
<svg id="Layer_1" data-name="Layer 1" xmlns="http://www.w3.org/2000/svg" viewBox="0 0 510 578">
  <defs>
    <style>
      .cls-1 {
        fill: #777;
      }

      .cls-2 {
        fill: #232323;
      }

      .cls-3 {
        stroke-width: 6px;
      }

      .cls-3, .cls-4, .cls-5, .cls-6 {
        stroke: #000;
        stroke-miterlimit: 10;
      }

      .cls-3, .cls-4, .cls-6 {
        fill: none;
      }

      .cls-4, .cls-5 {
        stroke-width: 10px;
      }

      .cls-7 {
        fill: #898989;
      }

      .cls-5 {
        fill: #fff;
      }

      .cls-8 {
        fill: #494949;
      }

      .cls-6 {
        stroke-width: 9px;
      }
    </style>
  </defs>
  <ellipse class="cls-5" cx="255" cy="289" rx="250" ry="284"/>
  <g>
    <g>
      <path class="cls-8" d="m224.5,159.5v30H20.77c3.4-10.31,7.3-20.33,11.69-30.02l.04.02h192Zm-47.5,15.5c0-.55-.45-1-1-1s-1,.45-1,1,.45,1,1,1,1-.45,1-1Zm-81,0c0-.55-.45-1-1-1s-1,.45-1,1,.45,1,1,1,1-.45,1-1Z"/>
      <path class="cls-8" d="m489.23,189.5h-203.73v-30h192l.04-.02c4.39,9.69,8.29,19.71,11.69,30.02Zm-73.23-14.5c0-.55-.45-1-1-1s-1,.45-1,1,.45,1,1,1,1-.45,1-1Zm-81,0c0-.55-.45-1-1-1s-1,.45-1,1,.45,1,1,1,1-.45,1-1Z"/>
      <path class="cls-8" d="m285.5,288.49v124.62c-9.98,1.25-20.16,1.89-30.5,1.89s-20.52-.64-30.5-1.89V8.5h61v279.99Zm-29.5-259.49c0-.55-.45-1-1-1s-1,.45-1,1,.45,1,1,1,1-.45,1-1Zm0,52c0-.55-.45-1-1-1s-1,.45-1,1,.45,1,1,1,1-.45,1-1Zm0,52c0-.55-.45-1-1-1s-1,.45-1,1,.45,1,1,1,1-.45,1-1Zm0,170c0-.55-.45-1-1-1s-1,.45-1,1,.45,1,1,1,1-.45,1-1Zm0,31c0-.55-.45-1-1-1s-1,.45-1,1,.45,1,1,1,1-.45,1-1Zm0,36c0-.55-.45-1-1-1s-1,.45-1,1,.45,1,1,1,1-.45,1-1Zm0,31c0-.55-.45-1-1-1s-1,.45-1,1,.45,1,1,1,1-.45,1-1Z"/>
      <path class="cls-7" d="m489.23,189.5c.09.27.18.54.26.82-.41,114.33-89.08,208.48-203.99,222.79v-124.62c93.5-.3,169-44.01,169-97.99v-1h34.73Z"/>
      <path class="cls-1" d="m477.54,159.48l-.04.02h-192V8.5l.19-1.38c83.84,11.66,154.85,70.46,191.85,152.36Z"/>
      <path class="cls-1" d="m224.5,8.5v151H32.5l-.04-.02C69.47,77.59,140.47,18.78,224.3,7.12l.2,1.38Z"/>
      <path class="cls-2" d="m454.5,189.5v1c0,53.98-75.5,97.69-169,97.99v-98.99h169Z"/>
      <path class="cls-2" d="m224.5,189.5v99c-93.96,0-170-43.38-170-97v-2h170Z"/>
      <path class="cls-7" d="m224.5,288.5v124.61c-114.91-14.31-203.58-108.46-203.99-222.79.08-.28.17-.55.26-.82h33.73v2c0,53.62,76.04,97,170,97Z"/>
    </g>
    <g>
      <path class="cls-4" d="m20.12,191.5c.13-.39.25-.79.39-1.18.08-.28.17-.55.26-.82,3.4-10.31,7.3-20.33,11.69-30.02C69.47,77.59,140.47,18.78,224.3,7.12c10.06-1.4,20.31-2.12,30.7-2.12s20.63.72,30.69,2.12c83.84,11.66,154.85,70.46,191.85,152.36,4.39,9.69,8.29,19.71,11.69,30.02.09.27.18.54.26.82.12.34.23.69.34,1.03"/>
      <path class="cls-3" d="m20.5,189.5c0,.27,0,.55.01.82.41,114.33,89.08,208.48,203.99,222.79,9.98,1.25,20.16,1.89,30.5,1.89"/>
      <path class="cls-3" d="m54.5,191.5c0,53.62,76.04,97,170,97"/>
      <polyline class="cls-3" points="285.5 189.5 454.5 189.5 489.23 189.5 489.5 189.5"/>
      <polyline class="cls-3" points="20.5 189.5 20.77 189.5 54.5 189.5 224.5 189.5"/>
      <polyline class="cls-3" points="285.5 189.5 285.5 159.5 285.5 8.5 224.5 8.5 224.5 159.5 224.5 189.5"/>
      <path class="cls-3" d="m489.5,189.5c0,.27,0,.55-.01.82-.41,114.33-89.08,208.48-203.99,222.79-9.98,1.25-20.16,1.89-30.5,1.89"/>
      <path class="cls-3" d="m454.5,190.5c0,53.98-75.5,97.69-169,97.99-.33.01-.67.01-1,.01"/>
      <polyline class="cls-3" points="224.5 189.5 224.5 288.5 224.5 413.11 224.5 414.5"/>
      <polyline class="cls-3" points="285.5 414.5 285.5 413.11 285.5 288.49 285.5 189.5"/>
      <circle class="cls-6" cx="255" cy="29" r="1"/>
      <circle class="cls-6" cx="255" cy="81" r="1"/>
      <circle class="cls-6" cx="255" cy="133" r="1"/>
      <line class="cls-4" x1="285.5" y1="159.5" x2="477.5" y2="159.5"/>
      <line class="cls-4" x1="32.5" y1="159.5" x2="224.5" y2="159.5"/>
      <circle class="cls-6" cx="176" cy="175" r="1"/>
      <circle class="cls-6" cx="334" cy="175" r="1"/>
      <circle class="cls-6" cx="415" cy="175" r="1"/>
      <circle class="cls-6" cx="95" cy="175" r="1"/>
      <circle class="cls-6" cx="255" cy="303" r="1"/>
      <circle class="cls-6" cx="255" cy="401" r="1"/>
      <circle class="cls-6" cx="255" cy="334" r="1"/>
      <circle class="cls-6" cx="255" cy="370" r="1"/>
    </g>
  </g>
</svg>